<?xml version="1.0" standalone="no"?>
<!DOCTYPE svg PUBLIC "-//W3C//DTD SVG 20010904//EN"
 "http://www.w3.org/TR/2001/REC-SVG-20010904/DTD/svg10.dtd">
<svg version="1.0" xmlns="http://www.w3.org/2000/svg"
 width="512.000000pt" height="512.000000pt" viewBox="0 0 512.000000 512.000000"
 preserveAspectRatio="xMidYMid meet">
<metadata>
Created by potrace 1.11, written by Peter Selinger 2001-2013
</metadata>
<g transform="translate(0.000000,512.000000) scale(0.100000,-0.100000)"
fill="#000000" stroke="none">
<path d="M3680 4416 c-25 -6 -55 -17 -67 -24 -12 -6 -27 -12 -33 -12 -34 0
-220 -153 -220 -182 0 -4 -7 -13 -15 -21 -18 -19 -62 -114 -70 -153 -15 -73
-18 -93 -18 -149 -1 -86 8 -135 43 -222 l31 -76 -23 -26 c-13 -14 -26 -28 -30
-31 -4 -3 -22 -37 -39 -75 -27 -58 -33 -83 -35 -148 -1 -43 3 -96 9 -118 9
-39 9 -41 -31 -74 -50 -44 -106 -127 -124 -185 l-13 -45 -85 0 c-112 0 -189
-29 -271 -103 -32 -30 -59 -59 -59 -65 0 -6 -6 -18 -13 -26 -21 -24 -45 -94
-53 -147 -5 -39 -16 -59 -58 -105 -71 -80 -101 -158 -101 -269 0 -159 76 -284
217 -354 39 -20 77 -36 85 -36 10 0 13 -15 12 -62 -1 -88 -16 -132 -61 -183
-44 -50 -84 -73 -142 -81 -76 -10 -86 -14 -101 -45 -20 -38 -12 -84 18 -104
21 -13 22 -21 21 -173 0 -148 -2 -160 -22 -180 -44 -44 -36 -113 15 -133 16
-6 99 -9 201 -8 220 2 293 20 407 100 86 60 139 123 184 221 39 83 47 116 57
237 6 72 27 121 75 169 47 48 91 62 200 67 187 8 320 93 387 249 12 26 15 28
50 20 20 -5 71 -8 113 -7 163 3 304 109 361 271 19 54 26 158 14 199 -4 13 8
26 42 48 106 67 182 201 182 320 l0 43 84 41 c181 88 298 260 312 460 15 211
-80 400 -259 514 -56 36 -153 73 -211 80 -25 3 -31 10 -46 58 -55 178 -211
337 -380 386 -33 9 -65 27 -81 45 -30 31 -115 73 -188 93 -60 16 -212 17 -271
1z"/>
<path d="M270 3682 c-194 -2 -217 -5 -240 -22 l-25 -19 -3 -1476 -2 -1476 25
-25 c19 -19 35 -25 63 -24 68 3 78 1 79 -20 4 -48 36 -151 68 -216 93 -190
267 -330 475 -382 105 -27 278 -23 375 8 244 77 436 278 492 515 9 39 17 76
19 82 3 10 55 13 216 14 117 0 224 3 238 5 63 12 131 65 169 133 19 34 21 122
21 831 1 613 0 622 -44 685 -66 94 -100 103 -393 105 -131 0 -245 2 -253 4
-107 22 -152 60 -196 166 -14 36 -30 74 -35 85 -5 11 -25 65 -44 120 -20 55
-43 116 -51 135 -7 19 -50 131 -94 248 -103 276 -148 345 -284 434 -74 48
-169 78 -266 84 -41 3 -79 6 -85 7 -5 1 -107 1 -225 -1z"/>
</g>
</svg>
